Coordinates
version=1
nRows=10
nColumns=40
inDegrees=yes

Units are S.I. units (second, meters, Newtons, ...)
Angles are in degrees.

endheader
time	pelvis_tilt	pelvis_list	pelvis_rotation	pelvis_tx	pelvis_ty	pelvis_tz	hip_flexion_r	hip_adduction_r	hip_rotation_r	knee_angle_r	knee_angle_r_beta	ankle_angle_r	subtalar_angle_r	mtp_angle_r	hip_flexion_l	hip_adduction_l	hip_rotation_l	knee_angle_l	knee_angle_l_beta	ankle_angle_l	subtalar_angle_l	mtp_angle_l	lumbar_extension	lumbar_bending	lumbar_rotation	arm_flex_r	arm_add_r	arm_rot_r	elbow_flex_r	pro_sup_r	wrist_flex_r	wrist_dev_r	arm_flex_l	arm_add_l	arm_rot_l	elbow_flex_l	pro_sup_l	wrist_flex_l	wrist_dev_l
     59.59114286	     -5.62702971	     -5.83142134	      3.68989443	      0.99794690	      0.92497288	      0.52646056	     12.22921832	      2.75136210	    -14.66260921	     18.84595257	     18.84595257	     13.74176425	     -3.54901784	     -1.00732977	     42.13461916	    -11.21230097	      6.20552873	     65.74531996	     65.74531996	     10.94354916	    -19.35378379	     19.50430094	    -11.69365178	      4.84090583	      3.24909404	     13.67005823	    -13.37106941	     -7.07169861	     42.18714517	     45.98603133	      0.00000000	      0.00000000	      7.78437093	     -7.46667108	     -2.06039833	     44.11077810	     47.19889650	      0.00000000	      0.00000000
     59.60228571	     -5.67182383	     -5.79239865	      3.96273278	      0.99711694	      0.92470715	      0.52580279	     11.57704657	      2.74831711	    -14.73922089	     18.47417695	     18.47417695	     14.01238321	     -3.58141109	     -1.30177285	     42.89422808	    -10.90346579	      6.05450017	     63.69571516	     63.69571516	     10.95110547	    -19.34520091	     19.51206775	    -11.62522703	      4.74159240	      3.79490569	     14.95739470	    -14.14246554	     -5.95175334	     45.28849748	     45.80666631	      0.00000000	      0.00000000	      8.53614458	     -6.68683503	     -1.52030700	     37.45419142	     47.05530285	      0.00000000	      0.00000000
     59.61342857	     -5.72084146	     -5.74892075	      4.27115564	      0.99632606	      0.92438828	      0.52488494	     10.92046579	      2.72324310	    -14.80589418	     18.10166372	     18.10166372	     14.32056689	     -3.58165682	     -1.36336092	     43.51319809	    -10.47599496	      6.03278946	     61.40921759	     61.40921759	     10.93159684	    -19.28911629	     19.53596504	    -11.65385213	      4.68903400	      3.21880391	     17.32284310	    -13.88959476	     -5.92958234	     47.33857984	     45.74068365	      0.00000000	      0.00000000	      7.10568946	     -6.67871387	     -1.25606388	     35.37460600	     46.98277267	      0.00000000	      0.00000000
     59.62457143	     -5.89706917	     -5.68915265	      4.45189881	      0.99550427	      0.92387212	      0.52384453	     10.47837818	      2.64246818	    -14.83461199	     17.87366226	     17.87366226	     14.62162912	     -3.59171905	     -1.44355936	     44.07935629	    -10.07372807	      5.92867622	     58.86663673	     58.86663673	     10.89096217	    -19.19210786	     19.66441266	    -11.48753766	      4.59773581	      3.52322779	     19.50952293	    -14.42299049	     -6.02989585	     48.61390308	     45.71092522	      0.00000000	      0.00000000	      5.83973632	     -6.27437461	     -1.06829993	     34.21284157	     46.93320316	      0.00000000	      0.00000000
     59.63571429	     -5.88092528	     -5.64073209	      4.69132145	      0.99503932	      0.92358465	      0.52274321	      9.67062320	      2.58948583	    -15.12433579	     17.41160881	     17.41160881	     14.94191150	     -3.18207969	     -1.79414302	     44.13793113	     -9.62862164	      6.00753677	     55.91167899	     55.91167899	     10.19686066	    -19.06168279	     17.39623871	    -11.55360707	      4.58074106	      3.51226643	     20.55833032	    -14.91110398	     -4.28610652	     53.64858329	     45.45401675	      0.00000000	      0.00000000	      6.39872165	     -6.01367602	      0.08236269	     27.61804651	     46.71845513	      0.00000000	      0.00000000
     59.64685714	     -5.96587917	     -5.55105492	      4.84701609	      0.99460420	      0.92316445	      0.52152036	      9.01090034	      2.49916400	    -15.18922825	     17.01683662	     17.01683662	     15.24140530	     -3.03358952	     -1.85574201	     44.17054237	     -9.09262305	      6.19820481	     52.86157077	     52.86157077	     10.18092986	    -18.78054806	     17.14137026	    -11.52612279	      4.46861572	      3.12713978	     22.83095144	    -14.63190084	     -4.36115649	     55.84051604	     45.39160030	      0.00000000	      0.00000000	      4.89226745	     -6.01896805	      0.31732177	     26.25807399	     46.64317195	      0.00000000	      0.00000000
     59.65800000	     -6.05033593	     -5.46463076	      4.93325973	      0.99434619	      0.92271041	      0.52026541	      8.32349420	      2.40636505	    -15.27868004	     16.59795615	     16.59795615	     15.55460415	     -2.72158871	     -1.94503451	     43.98012041	     -8.62622164	      6.39438549	     49.56935438	     49.56935438	     10.12162927	    -18.31272073	     16.61508641	    -11.48290813	      4.34605134	      2.91414268	     24.95646717	    -14.45577979	     -4.25073467	     58.16366315	     45.31707243	      0.00000000	      0.00000000	      3.49334280	     -6.00683771	      0.59086938	     24.93524697	     46.56383427	      0.00000000	      0.00000000
     59.66914286	     -6.11797651	     -5.46427718	      4.99538346	      0.99433734	      0.92212634	      0.51899931	      7.57270111	      2.40745817	    -15.45491940	     16.11246119	     16.11246119	     15.88519559	     -2.22213445	     -2.05628351	     43.61761097	     -8.30627830	      6.65051741	     46.15084810	     46.15084810	     10.06267219	    -17.46914256	     15.58939254	    -11.46549007	      4.29717518	      2.69325794	     26.92185289	    -14.28454086	     -3.92363300	     61.02132528	     45.21653108	      0.00000000	      0.00000000	      2.07196539	     -5.98021491	      0.95888367	     23.64024498	     46.46205567	      0.00000000	      0.00000000
     59.68028571	     -6.17850235	     -5.47612111	      4.99377080	      0.99465461	      0.92148906	      0.51765661	      6.77684577	      2.41964596	    -15.58865914	     15.59649466	     15.59649466	     16.17300645	     -1.67701156	     -2.13973697	     43.04271246	     -8.14118248	      6.71040925	     42.57790734	     42.57790734	     10.00246911	    -16.35847746	     14.53748317	    -11.35733225	      4.31989201	      2.67535132	     28.74922766	    -14.31037412	     -3.56374612	     63.96207580	     45.11382548	      0.00000000	      0.00000000	      0.63309199	     -5.94705927	      1.33584388	     22.70760430	     46.35146626	      0.00000000	      0.00000000
     59.69142857	     -6.27832818	     -5.55632195	      4.94088864	      0.99527431	      0.92052662	      0.51625227	      5.99454323	      2.47619982	    -15.86488844	     15.07197437	     15.07197437	     16.56390620	     -0.80809771	     -2.26877302	     42.30223769	     -8.14055416	      6.63154833	     38.80474956	     38.80474956	      8.94255506	    -15.33939589	     11.04492756	    -11.24792785	      4.43305627	      3.42167830	     29.44188364	    -15.46903203	     -2.52567084	     69.36112464	     44.91869611	      0.00000000	      0.00000000	     -0.72203858	     -6.00344548	      2.67018880	     22.53791070	     46.00356892	      0.00000000	      0.00000000
